<svg width="500" height="500" viewBox="0 0 500 500" fill="none" xmlns="http://www.w3.org/2000/svg">
<rect width="500" height="500" fill="#F0F0F0"/>
<path fill-rule="evenodd" clip-rule="evenodd" d="M0 0H500V500H0V0Z" fill="#F0F0F0"/>
<path d="M397.544 290.569H332.173V268.126L367.991 231.343H334.48V210.779H399.791V233.223L366.539 270.005H397.544V290.569Z" fill="#8FC74A"/>
<path d="M244.368 236.067C241.116 234.277 226.419 233.77 221.338 243.505C216.674 252.444 217.639 272.123 217.549 290.569H190.015L190.005 210.769L219.479 210.779L219.827 220.693C219.837 220.813 219.866 220.345 220.016 219.987C223.814 211.137 237.626 208.075 244.358 211.177L244.368 236.067Z" fill="#8FC74A"/>
<path d="M147.157 290.559C147.157 288.689 149.096 256.073 147.793 256.282C115.854 261.503 129.168 281.858 142.951 271.725L142.642 273.077L138.506 288.978C138.118 290.459 100.073 296.873 101.017 267.002C101.942 237.806 147.933 243.455 149.096 233.829C150.816 219.659 112.721 232.854 110.653 234.127L113.049 214.707C115.685 214.031 119.433 213.275 124.316 212.459C143.448 209.258 177.893 205.847 177.038 233.371L176.82 290.569L147.157 290.559Z" fill="#8FC74A"/>
<path fill-rule="evenodd" clip-rule="evenodd" d="M268.83 274.709C269.357 288.302 288.589 287.437 291.313 287.825C293.223 287.984 295.45 288.73 293.402 289.356C257.564 295.422 247.66 281.6 248.495 265.799C250.116 235.261 306.359 239.219 292.537 229.862C301.287 227.276 323.213 233.143 321.424 241.675C317.615 259.803 270.491 253.588 268.83 274.709Z" fill="#8FC74A"/>
<path fill-rule="evenodd" clip-rule="evenodd" d="M259.145 215.055C258.429 221.509 257.704 227.953 256.988 234.406C274.519 226.7 303.843 222.474 321.523 233.929C321.852 218.178 311.182 212.122 300.313 210.869C287.734 209.437 270.71 212.062 259.145 215.055Z" fill="#F58634"/>
<path fill-rule="evenodd" clip-rule="evenodd" d="M320.578 250.118C320.578 250.118 322.06 272.83 319.972 277.951C317.635 290.182 303.365 291.047 296.454 282.952C290.568 276.051 291.671 264.506 302.073 259.236C308.566 255.935 313.399 256.213 320.578 250.118Z" fill="#F58634"/>
</svg>
